<svg width="296" height="60" fill="none" xmlns="http://www.w3.org/2000/svg"><path d="m3.267 15.732 4.298-4.091 8.532 13.21h3.965L9.802 9.5l9.99-9.5h-4.535L3.267 11.593V.08H0v24.773h3.267v-9.12Zm97.361 5.948H87.195v-7.914h13.18v-3.124h-13.18v-7.47h13.433V.032H83.833v24.772h16.795V21.68Zm23.297 3.124h3.363V.032h-3.363V10.72h-15.082V.03h-3.362v24.773h3.362V13.845h15.082v10.959ZM79.36 45.77H64.278V35.08h-3.362v24.773h3.362V48.894H79.36v10.96h3.362V35.08H79.36v10.69Zm55.54-31.925h15.082v10.959h3.346V.032h-3.346V10.72H134.9V.03h-3.363v24.773h3.363V13.845Zm75.348 21.22h-16.414v24.82h3.362V38.158h9.833v21.727h3.219V38.158h10.23v21.727h3.33v-24.82h-13.56Zm61.471 13.909V35.065h-15.622v.032h-3.362v24.772h3.362V48.958h15.622v.016ZM256.097 38.03h12.497v7.898h-12.497V38.03Zm-66.942-13.226L200.4 13.94h.238v10.864H204V.032h-19.46V13.94h11.371l-11.434 10.864h4.678Zm11.483-21.79v7.897h-12.973V3.013h12.973Zm-96.506 48.957L90.176 35.097h-4.567l18.476 21.711H87.448v3.077h20.046V35.097h-3.362V51.97Zm33.829-15.003h-9.944v-2.506h-3.362v2.506h-13.069v16.78h13.069v6.121h3.362v-6.122h13.052V36.968h-3.108Zm-23.234 13.64V39.87h9.943v10.737h-9.943Zm13.29 0V39.87h9.944v10.737h-9.944ZM52.685 5.043l-.016-.079 11.34 13.417L75.331 4.964v19.84h3.378V.032h-3.235v.016L64.008 13.655 52.526.048V.032h-3.235v24.772h3.394V5.044Zm-26.58 30.054v.031L14.654 46.563 3.378 35.287v-.19H0v24.788h3.378V39.617l11.276 11.276 2.173-2.173v.016l9.277-9.278v20.427h3.379V35.097h-3.378Zm17.429 0-10.88 24.788h3.474v-.016L49.83 49.37l4.647 10.515h3.584L47.198 35.113h-3.664v-.016ZM38.46 54.223l6.788-15.59 3.362 7.756-10.15 7.834Zm114.727-19.126-10.896 24.772h3.473v-.016l13.782-10.34 4.584 10.34h3.584L156.85 35.081h-3.663v.016Zm-5.075 19.126 6.787-15.59 3.363 7.756-10.15 7.834Zm137.024-19.126h-3.663l-10.896 24.772h3.474v-.016l13.781-10.34 4.584 10.34H296l-10.864-24.756Zm-8.738 19.126 6.788-15.59 3.362 7.756-10.15 7.834ZM25.391 24.804l13.782-10.34 4.583 10.34h3.584L36.477.032h-3.664L21.918 24.804h3.473Zm9.135-21.236 3.362 7.756-10.15 7.834 6.788-15.59ZM159.91 24.804l13.782-10.34 4.583 10.34h3.584L170.995.032h-3.663l-10.895 24.772h3.473Zm9.119-21.236 3.362 7.756-10.15 7.834 6.788-15.59Zm76.236 48.403-13.956-16.874h-4.584l18.476 21.711h-16.62v3.077h20.03V35.097h-3.346V51.97Zm-55.556-16.906h-4.535l-11.99 11.61v-11.53h-3.267v24.772h3.267v-9.12l4.298-4.091 8.516 13.21h3.981l-10.261-15.351 9.991-9.5Z" fill="#fff"/></svg>