<svg width="860" height="860" fill="none" xmlns="http://www.w3.org/2000/svg"><mask id="a" fill="#fff"><path fill-rule="evenodd" clip-rule="evenodd" d="M859 430c0 236.93-192.07 429-429 429S1 666.93 1 430 193.07 1 430 1s429 192.07 429 429Zm1 0c0 237.482-192.518 430-430 430S0 667.482 0 430 192.518 0 430 0s430 192.518 430 430ZM645 215H215v430h430V215Z"/></mask><path fill-rule="evenodd" clip-rule="evenodd" d="M859 430c0 236.93-192.07 429-429 429S1 666.93 1 430 193.07 1 430 1s429 192.07 429 429Zm1 0c0 237.482-192.518 430-430 430S0 667.482 0 430 192.518 0 430 0s430 192.518 430 430ZM645 215H215v430h430V215Z" fill="#060606"/><path d="M215 215v-1h-1v1h1Zm430 0h1v-1h-1v1ZM215 645h-1v1h1v-1Zm430 0v1h1v-1h-1ZM430 860c237.482 0 430-192.518 430-430h-2c0 236.378-191.622 428-428 428v2ZM0 430c0 237.482 192.518 430 430 430v-2C193.622 858 2 666.378 2 430H0ZM430 0C192.518 0 0 192.518 0 430h2C2 193.622 193.622 2 430 2V0Zm430 430C860 192.518 667.482 0 430 0v2c236.378 0 428 191.622 428 428h2ZM430 861c238.035 0 431-192.965 431-431h-2c0 236.93-192.07 429-429 429v2ZM-1 430c0 238.035 192.965 431 431 431v-2C193.07 859 1 666.93 1 430h-2ZM430-1C191.965-1-1 191.965-1 430h2C1 193.07 193.07 1 430 1v-2Zm431 431C861 191.965 668.035-1 430-1v2c236.93 0 429 192.07 429 429h2ZM215 216h430v-2H215v2Zm1 429V215h-2v430h2Zm429-1H215v2h430v-2Zm-1-429v430h2V215h-2Z" fill="#515151" mask="url(#a)"/></svg>