<svg width="178" height="178" viewBox="0 0 178 178" fill="none" xmlns="http://www.w3.org/2000/svg">
<mask id="path-1-inside-1_878_2314" fill="#515151">
<path fill-rule="evenodd" clip-rule="evenodd" d="M1.00565 1.01138C12.219 1.13954 23.3078 3.41002 33.674 7.70381C44.3499 12.126 54.0504 18.6076 62.2214 26.7786C70.3924 34.9496 76.8741 44.6501 81.2962 55.326C85.7183 66.002 87.9944 77.4444 87.9944 89C87.9944 100.556 85.7183 111.998 81.2962 122.674C76.8741 133.35 70.3924 143.05 62.2214 151.221C54.0504 159.392 44.35 165.874 33.674 170.296C23.3078 174.59 12.219 176.86 1.00565 176.989L1.00565 1.01138ZM0 178C0.335319 178 0.670538 177.998 1.00565 177.994C12.3511 177.866 23.5706 175.57 34.0588 171.225C44.8568 166.753 54.6681 160.197 62.9325 151.933C71.1969 143.668 77.7526 133.857 82.2253 123.059C85.4948 115.166 87.6044 106.858 88.5028 98.3946C89.4113 106.858 91.5446 115.166 94.8508 123.059C99.3738 133.857 106.003 143.668 114.36 151.933C122.718 160.197 132.639 166.753 143.559 171.225C154.165 175.57 165.51 177.866 176.983 177.994C177.322 177.998 177.661 178 178 178L178 0C177.661 0 177.322 0.00189212 176.983 0.00567631C165.51 0.133866 154.165 2.43038 143.558 6.77472C132.639 11.2474 122.718 17.8031 114.36 26.0675C106.003 34.3319 99.3738 44.1432 94.8508 54.9412C91.5446 62.8344 89.4113 71.1419 88.5028 79.6055C87.6044 71.1419 85.4948 62.8344 82.2253 54.9412C77.7526 44.1432 71.1969 34.3319 62.9325 26.0675C54.6681 17.8031 44.8568 11.2474 34.0588 6.77472C23.5706 2.43037 12.3511 0.133865 1.00565 0.00567623C0.670538 0.00189206 0.335319 0 0 0V178ZM176.983 1.01138C165.644 1.13954 154.43 3.41002 143.948 7.70381C133.152 12.126 123.342 18.6076 115.079 26.7786C106.817 34.9496 100.262 44.6501 95.7904 55.326C91.3186 66.002 89.0169 77.4444 89.0169 89C89.017 100.556 91.3186 111.998 95.7904 122.674C100.262 133.35 106.817 143.05 115.079 151.221C123.342 159.392 133.152 165.874 143.948 170.296C154.43 174.59 165.644 176.86 176.983 176.989L176.983 1.01138Z"/>
</mask>
<path fill-rule="evenodd" clip-rule="evenodd" d="M1.00565 1.01138C12.219 1.13954 23.3078 3.41002 33.674 7.70381C44.3499 12.126 54.0504 18.6076 62.2214 26.7786C70.3924 34.9496 76.8741 44.6501 81.2962 55.326C85.7183 66.002 87.9944 77.4444 87.9944 89C87.9944 100.556 85.7183 111.998 81.2962 122.674C76.8741 133.35 70.3924 143.05 62.2214 151.221C54.0504 159.392 44.35 165.874 33.674 170.296C23.3078 174.59 12.219 176.86 1.00565 176.989L1.00565 1.01138ZM0 178C0.335319 178 0.670538 177.998 1.00565 177.994C12.3511 177.866 23.5706 175.57 34.0588 171.225C44.8568 166.753 54.6681 160.197 62.9325 151.933C71.1969 143.668 77.7526 133.857 82.2253 123.059C85.4948 115.166 87.6044 106.858 88.5028 98.3946C89.4113 106.858 91.5446 115.166 94.8508 123.059C99.3738 133.857 106.003 143.668 114.36 151.933C122.718 160.197 132.639 166.753 143.559 171.225C154.165 175.57 165.51 177.866 176.983 177.994C177.322 177.998 177.661 178 178 178L178 0C177.661 0 177.322 0.00189212 176.983 0.00567631C165.51 0.133866 154.165 2.43038 143.558 6.77472C132.639 11.2474 122.718 17.8031 114.36 26.0675C106.003 34.3319 99.3738 44.1432 94.8508 54.9412C91.5446 62.8344 89.4113 71.1419 88.5028 79.6055C87.6044 71.1419 85.4948 62.8344 82.2253 54.9412C77.7526 44.1432 71.1969 34.3319 62.9325 26.0675C54.6681 17.8031 44.8568 11.2474 34.0588 6.77472C23.5706 2.43037 12.3511 0.133865 1.00565 0.00567623C0.670538 0.00189206 0.335319 0 0 0V178ZM176.983 1.01138C165.644 1.13954 154.43 3.41002 143.948 7.70381C133.152 12.126 123.342 18.6076 115.079 26.7786C106.817 34.9496 100.262 44.6501 95.7904 55.326C91.3186 66.002 89.0169 77.4444 89.0169 89C89.017 100.556 91.3186 111.998 95.7904 122.674C100.262 133.35 106.817 143.05 115.079 151.221C123.342 159.392 133.152 165.874 143.948 170.296C154.43 174.59 165.644 176.86 176.983 176.989L176.983 1.01138Z" fill="#515151"/>
<path d="M33.674 7.70382L34.0567 6.77994V6.77994L33.674 7.70382ZM1.00565 1.01139L1.01708 0.011454L0.00564957 -0.000104579L0.00564957 1.01139H1.00565ZM62.2214 26.7786L61.5143 27.4857L62.2214 26.7786ZM81.2962 55.326L82.2201 54.9433L81.2962 55.326ZM81.2962 122.674L82.2201 123.057L81.2962 122.674ZM62.2214 151.221L62.9285 151.929L62.2214 151.221ZM33.674 170.296L33.2913 169.372L33.674 170.296ZM1.00565 176.989H0.00564969L0.00564969 178L1.01708 177.989L1.00565 176.989ZM1.00565 177.994L1.01694 178.994H1.01695L1.00565 177.994ZM0 178H-1V179H0V178ZM34.0588 171.225L34.4415 172.149L34.0588 171.225ZM62.9325 151.933L63.6396 152.64L62.9325 151.933ZM82.2253 123.059L83.1492 123.442L82.2253 123.059ZM88.5028 98.3945L89.4971 98.2878L87.5084 98.289L88.5028 98.3945ZM94.8508 123.059L95.7732 122.672L94.8508 123.059ZM114.36 151.933L115.064 151.221L114.36 151.933ZM143.559 171.225L143.938 170.3L143.559 171.225ZM176.983 177.994L176.972 178.994L176.983 177.994ZM178 178V179H179V178H178ZM178 0L179 -8.57235e-08V-1H178V0ZM176.983 0.00567754L176.994 1.00562L176.994 1.00561L176.983 0.00567754ZM143.558 6.77473L143.938 7.7001V7.7001L143.558 6.77473ZM94.8508 54.9412L93.9285 54.5548L94.8508 54.9412ZM88.5028 79.6055L87.5084 79.711L89.4971 79.7122L88.5028 79.6055ZM82.2253 54.9412L81.3014 55.3239L82.2253 54.9412ZM62.9325 26.0675L63.6396 25.3604L62.9325 26.0675ZM34.0588 6.77472L33.6761 7.6986L34.0588 6.77472ZM1.00565 0.00567745L0.99434 1.00561L0.994351 1.00561L1.00565 0.00567745ZM0 0V-1H-1V0H0ZM143.948 7.70382L143.569 6.77844V6.77844L143.948 7.70382ZM176.983 1.01139L177.983 1.01139V2.38678e-05L176.972 0.0114526L176.983 1.01139ZM115.079 26.7786L114.376 26.0676L115.079 26.7786ZM95.7904 55.326L94.868 54.9397L95.7904 55.326ZM89.0169 89H88.0169H89.0169ZM95.7904 122.674L94.868 123.06L95.7904 122.674ZM115.079 151.221L115.783 150.51L115.079 151.221ZM143.948 170.296L143.569 171.222L143.948 170.296ZM176.983 176.989L176.972 177.989L177.983 178V176.989H176.983ZM34.0567 6.77994C23.5727 2.43733 12.3579 0.141056 1.01708 0.011454L0.994222 2.01132C12.0801 2.13801 23.0429 4.38269 33.2913 8.6277L34.0567 6.77994ZM62.9285 26.0715C54.6646 17.8076 44.854 11.2523 34.0567 6.77994L33.2913 8.6277C43.8459 12.9996 53.4361 19.4075 61.5143 27.4857L62.9285 26.0715ZM82.2201 54.9433C77.7477 44.146 71.1924 34.3354 62.9285 26.0715L61.5143 27.4857C69.5925 35.5639 76.0004 45.1541 80.3723 55.7087L82.2201 54.9433ZM88.9944 89C88.9944 77.3131 86.6925 65.7406 82.2201 54.9433L80.3723 55.7087C84.7442 66.2633 86.9944 77.5757 86.9944 89H88.9944ZM82.2201 123.057C86.6925 112.259 88.9944 100.687 88.9944 89H86.9944C86.9944 100.424 84.7442 111.737 80.3723 122.291L82.2201 123.057ZM62.9285 151.929C71.1924 143.665 77.7477 133.854 82.2201 123.057L80.3723 122.291C76.0004 132.846 69.5925 142.436 61.5143 150.514L62.9285 151.929ZM34.0567 171.22C44.854 166.748 54.6646 160.192 62.9285 151.929L61.5143 150.514C53.4361 158.592 43.8459 165 33.2913 169.372L34.0567 171.22ZM1.01708 177.989C12.3579 177.859 23.5727 175.563 34.0567 171.22L33.2913 169.372C23.0429 173.617 12.0801 175.862 0.994223 175.989L1.01708 177.989ZM0.00564957 1.01139L0.00564969 176.989H2.00565V1.01139H0.00564957ZM0.994358 176.994C0.663012 176.998 0.331557 177 0 177V179C0.339081 179 0.678064 178.998 1.01694 178.994L0.994358 176.994ZM33.6761 170.301C23.3058 174.597 12.2123 176.868 0.99435 176.994L1.01695 178.994C12.4898 178.865 23.8355 176.542 34.4415 172.149L33.6761 170.301ZM62.2254 151.225C54.0539 159.397 44.3528 165.879 33.6761 170.301L34.4415 172.149C45.3608 167.626 55.2823 160.997 63.6396 152.64L62.2254 151.225ZM81.3014 122.676C76.879 133.353 70.397 143.054 62.2254 151.225L63.6396 152.64C71.9969 144.282 78.6262 134.361 83.1492 123.442L81.3014 122.676ZM87.5084 98.289C86.6201 106.657 84.5341 114.872 81.3014 122.676L83.1492 123.442C86.4554 115.46 88.5887 107.059 89.4972 98.5001L87.5084 98.289ZM87.5085 98.5013C88.4273 107.061 90.5849 115.463 93.9285 123.445L95.7732 122.672C92.5044 114.869 90.3953 106.655 89.4971 98.2878L87.5085 98.5013ZM93.9285 123.445C98.5026 134.365 105.207 144.287 113.657 152.644L115.064 151.221C106.8 143.049 100.245 133.348 95.7732 122.672L93.9285 123.445ZM113.657 152.644C122.108 161 132.14 167.629 143.179 172.151L143.938 170.3C133.139 165.877 123.327 159.394 115.064 151.221L113.657 152.644ZM143.179 172.151C153.903 176.543 165.373 178.865 176.972 178.994L176.994 176.994C165.647 176.868 154.427 174.596 143.938 170.3L143.179 172.151ZM176.972 178.994C177.314 178.998 177.657 179 178 179V177C177.665 177 177.329 176.998 176.994 176.994L176.972 178.994ZM179 178L179 -8.57235e-08L177 8.57235e-08L177 178H179ZM178 -1C177.657 -1 177.314 -0.998092 176.972 -0.99426L176.994 1.00561C177.329 1.00187 177.665 1 178 1V-1ZM176.972 -0.99426C165.373 -0.86466 153.902 1.45705 143.179 5.84935L143.938 7.7001C154.427 3.40369 165.647 1.1324 176.994 1.00562L176.972 -0.99426ZM143.179 5.84935C132.14 10.3714 122.108 16.9997 113.657 25.3565L115.064 26.7785C123.327 18.6065 133.139 12.1234 143.938 7.7001L143.179 5.84935ZM113.657 25.3565C105.207 33.7132 98.5026 43.6347 93.9285 54.5548L95.7732 55.3275C100.245 44.6517 106.8 34.9506 115.064 26.7785L113.657 25.3565ZM93.9285 54.5548C90.5849 62.5373 88.4273 70.939 87.5085 79.4988L89.4971 79.7122C90.3953 71.3448 92.5044 63.1315 95.7732 55.3275L93.9285 54.5548ZM81.3014 55.3239C84.5341 63.1284 86.6201 71.3425 87.5084 79.711L89.4972 79.4999C88.5887 70.9412 86.4554 62.5404 83.1492 54.5585L81.3014 55.3239ZM62.2254 26.7746C70.397 34.9462 76.879 44.6472 81.3014 55.3239L83.1492 54.5585C78.6262 43.6392 71.9969 33.7177 63.6396 25.3604L62.2254 26.7746ZM33.6761 7.6986C44.3528 12.121 54.0538 18.603 62.2254 26.7746L63.6396 25.3604C55.2823 17.0031 45.3608 10.3738 34.4415 5.85084L33.6761 7.6986ZM0.994351 1.00561C12.2123 1.13236 23.3058 3.40306 33.6761 7.6986L34.4415 5.85084C23.8355 1.45768 12.4898 -0.864627 1.01695 -0.994259L0.994351 1.00561ZM0 1C0.331567 1 0.663016 1.00187 0.99434 1.00561L1.01696 -0.994259C0.67806 -0.998092 0.339071 -1 0 -1V1ZM1 178V0H-1V178H1ZM144.327 8.6292C154.692 4.38332 165.781 2.13805 176.994 2.01132L176.972 0.0114526C165.506 0.141022 154.168 2.43671 143.569 6.77844L144.327 8.6292ZM115.783 27.4897C123.952 19.4109 133.651 13.002 144.327 8.6292L143.569 6.77844C132.652 11.2499 122.733 17.8042 114.376 26.0676L115.783 27.4897ZM96.7127 55.7124C101.133 45.1585 107.613 35.5683 115.783 27.4897L114.376 26.0676C106.02 34.3309 99.391 44.1416 94.868 54.9397L96.7127 55.7124ZM90.0169 89C90.0169 77.5773 92.2921 66.2662 96.7127 55.7124L94.868 54.9397C90.345 65.7378 88.0169 77.3115 88.0169 89H90.0169ZM96.7127 122.288C92.2921 111.734 90.017 100.423 90.0169 89H88.0169C88.017 100.688 90.3451 112.262 94.868 123.06L96.7127 122.288ZM115.783 150.51C107.613 142.432 101.133 132.841 96.7127 122.288L94.868 123.06C99.391 133.858 106.02 143.669 114.376 151.932L115.783 150.51ZM144.327 169.371C133.651 164.998 123.952 158.589 115.783 150.51L114.376 151.932C122.733 160.196 132.652 166.75 143.569 171.222L144.327 169.371ZM176.994 175.989C165.781 175.862 154.692 173.617 144.327 169.371L143.569 171.222C154.168 175.563 165.506 177.859 176.972 177.989L176.994 175.989ZM175.983 1.01139L175.983 176.989H177.983L177.983 1.01139L175.983 1.01139Z" fill="#515151" mask="url(#path-1-inside-1_878_2314)"/>
</svg>
