<svg width="431" height="431" fill="none" xmlns="http://www.w3.org/2000/svg">

<path d="M81.894 17.33A213.57 213.57 0 0 0 1 1.005v428.99a213.562 213.562 0 0 0 80.894-16.325 213.976 213.976 0 0 0 69.427-46.497 214.52 214.52 0 0 0 46.389-69.588A214.924 214.924 0 0 0 214 215.5c0-28.168-5.535-56.061-16.29-82.085a214.518 214.518 0 0 0-46.389-69.588A213.97 213.97 0 0 0 81.894 17.33ZM1 430.998 0 431V0a214.567 214.567 0 0 1 82.277 16.404 214.972 214.972 0 0 1 69.751 46.715 215.528 215.528 0 0 1 46.606 69.913A215.926 215.926 0 0 1 215 215.5c0 28.3-5.561 56.323-16.366 82.468a215.541 215.541 0 0 1-46.606 69.914 214.972 214.972 0 0 1-69.751 46.714A214.568 214.568 0 0 1 1 430.998Z" fill="#fff"/>

<path d="M348.725 413.67a215.417 215.417 0 0 0 81.27 16.325V1.005a215.425 215.425 0 0 0-81.27 16.325 215.035 215.035 0 0 0-69.75 46.497 214.474 214.474 0 0 0-46.605 69.588 214.078 214.078 0 0 0-16.365 82.085c0 28.168 5.561 56.061 16.365 82.085a214.476 214.476 0 0 0 46.605 69.588 215.014 215.014 0 0 0 69.75 46.497ZM429.995.002 431 0v431l-1.005-.002a216.434 216.434 0 0 1-81.655-16.402 216.032 216.032 0 0 1-70.075-46.714 215.458 215.458 0 0 1-46.823-69.914A215.063 215.063 0 0 1 215 215.5c0-28.3 5.587-56.323 16.442-82.468a215.457 215.457 0 0 1 46.823-69.914 216.031 216.031 0 0 1 70.075-46.714A216.434 216.434 0 0 1 429.995.002Z" fill="#fff"/></svg>