<svg width="861" height="861" fill="none" xmlns="http://www.w3.org/2000/svg"><mask id="a" fill="#fff"><path fill-rule="evenodd" clip-rule="evenodd" d="M861 1 646 216v214h215v1H646v215H216L1 861l-.707-.707L216 644.586V431H1v-1h215V216h428.586L860.293.293 861 1Z"/></mask><path fill-rule="evenodd" clip-rule="evenodd" d="M861 1 646 216v214h215v1H646v215H216L1 861l-.707-.707L216 644.586V431H1v-1h215V216h428.586L860.293.293 861 1Z" fill="#060606"/><path d="m646 216-.707-.707-.293.293V216h1ZM861 1l.707.707.707-.707-.707-.707L861 1ZM646 430h-1v1h1v-1Zm215 0h1v-1h-1v1Zm0 1v1h1v-1h-1Zm-215 0v-1h-1v1h1Zm0 215v1h1v-1h-1Zm-430 0v-1h-.414l-.293.293.707.707ZM1 861l-.707.707.707.707.707-.707L1 861Zm-.707-.707-.707-.707-.707.707.707.707.707-.707ZM216 644.586l.707.707L217 645v-.414h-1ZM216 431h1v-1h-1v1ZM1 431H0v1h1v-1Zm0-1v-1H0v1h1Zm215 0v1h1v-1h-1Zm0-214v-1h-1v1h1Zm428.586 0v1H645l.293-.293-.707-.707ZM860.293.293 861-.414l-.707-.707-.707.707.707.707ZM646.707 216.707l215-215-1.414-1.414-215 215 1.414 1.414ZM647 430V216h-2v214h2Zm-1 1h215v-2H646v2Zm214-1v1h2v-1h-2Zm1 0H646v2h215v-2ZM647 646V431h-2v215h2Zm-431 1h430v-2H216v2ZM1.707 861.707l215-215-1.414-1.414-215 215 1.414 1.414ZM-.414 861l.707.707 1.414-1.414-.707-.707L-.414 861Zm215.707-217.121L-.414 859.586 1 861l215.707-215.707-1.414-1.414ZM215 431v213.586h2V431h-2Zm1-1H1v2h215v-2ZM2 431v-1H0v1h2Zm-1 0h215v-2H1v2Zm214-215v214h2V216h-2Zm429.586-1H216v2h428.586v-2Zm215-215.414L643.879 215.293l1.414 1.414L861 1l-1.414-1.414Zm2.121.707L861-.414 859.586 1l.707.707 1.414-1.414Z" fill="#515151" mask="url(#a)"/></svg>