<svg width="860" height="859" fill="none" xmlns="http://www.w3.org/2000/svg"><path fill-rule="evenodd" clip-rule="evenodd" d="M-1 429c.667 0 1.334-.002 2-.005C1.272 192.855 192.112 1.352 428 .007V0c0-236.93-192.07-429-429-429S-430-236.93-430 0-237.93 429-1 429Zm0 1c.667 0 1.334-.002 2-.005v.01C.334 430.002-.333 430-1 430Zm431.001 429-1.002-.003L429 860c0 237.48-192.518 430-430 430s-430-192.52-430-430c0-237.482 192.518-430 430-430-237.482 0-430-192.518-430-430S-238.482-430-1-430 429-237.482 429 0c0-237.482 192.518-430 430-430 237.48 0 430 192.518 430 430 0 237.149-191.98 429.459-429 429.999V430c237.48 0 430 192.518 430 430 0 237.48-192.52 430-430 430-237.482 0-430-192.52-430-430l.001-1Zm1 0-.001 1c0 236.93 192.07 429 429 429s429-192.07 429-429-192.07-429-429-429h-.003c-.808 236.349-192.52 427.73-428.996 428Zm427.997-427.999C858.189 666.797 666.926 857.728 431.005 858c1.075-235.676 192.19-426.46 427.993-426.999Zm.002-1c-236.356.538-427.92 191.77-428.995 427.999l-1.01-.003C427.921 622.436 237.435 431.619 2 430.01v-.02c235.768-1.611 426.46-192.966 427-428.987h.002C429.542 238.024 621.852 430 859 430v.001ZM-1 431c.668 0 1.335.002 2.003.005.808 235.68 191.442 426.645 426.996 427.988L428 860c0 236.93-192.07 429-429 429s-429-192.07-429-429S-237.93 431-1 431Zm3.003.01c.81 235.125 190.994 425.638 425.992 426.983C426.919 622.987 236.882 432.62 2.003 431.01ZM860 428.999c236.47-.54 428-192.402 428-428.999 0-236.93-192.07-429-429-429S430-236.93 430 0h.5C667.539 0 859.729 192.023 860 428.999ZM430.001 1h.499C666.987 1 858.73 192.576 859 429 622.403 429 430.541 237.471 430.001 1Zm-428 427.99c235.213-1.611 425.457-192.516 425.998-427.983C192.666 2.352 2.275 193.404 2 428.99Z" fill="#fff"/></svg>