<svg width="30" height="30" fill="none" xmlns="http://www.w3.org/2000/svg"><circle cx="15" cy="15" r="14.5" stroke="#B5B5B5"/><path d="M12.117 8C9.857 8 8 9.987 8 12.41v6.18C8 21.01 9.854 23 12.117 23h5.767C20.144 23 22 21.013 22 18.59v-6.18C22 9.99 20.146 8 17.884 8h-5.768Zm0 1.364h5.767c1.573 0 2.843 1.36 2.843 3.046v6.18c0 1.685-1.27 3.046-2.843 3.046h-5.768c-1.573 0-2.843-1.36-2.843-3.046v-6.18c0-1.685 1.27-3.046 2.844-3.046Zm6.642 1.491c-.321 0-.577.274-.577.618s.256.618.577.618c.32 0 .576-.274.576-.618s-.256-.618-.576-.618ZM15 11.41c-2.1 0-3.818 1.84-3.818 4.091 0 2.25 1.717 4.09 3.818 4.09 2.1 0 3.818-1.84 3.818-4.09S17.1 11.41 15 11.41Zm0 1.364c1.414 0 2.546 1.212 2.546 2.727S16.413 18.227 15 18.227s-2.546-1.212-2.546-2.727 1.132-2.727 2.546-2.727Z" fill="#B5B5B5"/></svg>