<svg width="164" height="33" fill="none" xmlns="http://www.w3.org/2000/svg"><path d="M1.8 8.665 4.165 6.41l4.7 7.276h2.184L5.397 5.232 10.901 0H8.403L1.799 6.385V.044H0v13.643h1.8V8.665Zm53.622 3.275h-7.398V7.582h7.259V5.86h-7.259V1.747h7.398V.017h-9.25v13.644h9.25v-1.72Zm12.832 1.721h1.852V.017h-1.852v5.888h-8.307V.017h-1.852v13.644h1.852V7.625h8.307v6.036ZM43.709 25.209h-8.307V19.32H33.55v13.644h1.852V26.93h8.307v6.036h1.852V19.321h-1.852v5.888ZM74.298 7.625h8.307v6.036h1.843V.017h-1.843v5.888h-8.307V.017h-1.852v13.644h1.852V7.625Zm41.5 11.688h-9.041v13.67h1.852V21.016h5.415v11.967h1.774V21.016h5.634v11.967h1.834v-13.67h-7.468Zm33.855 7.66v-7.66h-8.603v.017h-1.852v13.644h1.852v-6.01h8.603v.009Zm-8.603-6.027h6.883v4.35h-6.883v-4.35Zm-36.869-7.285 6.192-5.983h.132v5.983h1.851V.017h-10.717v7.66h6.263l-6.298 5.984h2.577Zm6.324-12.001v4.35h-7.146V1.66h7.146ZM57.352 28.624l-7.686-9.294H47.15l10.176 11.958h-9.163v1.695h11.041V19.33h-1.852v9.294Zm18.632-8.264h-5.477v-1.38h-1.852v1.38h-7.197v9.242h7.198v3.372h1.851v-3.372h7.189v-9.241h-1.712Zm-12.796 7.513v-5.914h5.476v5.914h-5.477Zm7.32 0v-5.914h5.476v5.914h-5.477ZM29.017 2.778l-.009-.044 6.245 7.39 6.237-7.39v10.927h1.86V.017h-1.78v.01L35.253 7.52 28.93.026V.017h-1.781v13.644h1.869V2.778ZM14.377 19.33v.018l-6.306 6.297-6.21-6.21v-.105H0v13.653h1.86V21.82l6.21 6.21 1.198-1.197v.009l5.11-5.11v11.25h1.86V19.33h-1.86Zm9.6 0-5.992 13.653h1.913v-.01l7.547-5.782 2.56 5.792h1.974l-5.984-13.644h-2.018v-.009Zm-2.795 10.534 3.739-8.586 1.852 4.271-5.59 4.315ZM84.37 19.33l-6.001 13.644h1.913v-.009l7.59-5.695 2.525 5.695h1.974l-5.984-13.644H84.37v.01Zm-2.795 10.534 3.738-8.586 1.852 4.271-5.59 4.315Zm75.468-10.534h-2.018l-6 13.644h1.913v-.009l7.59-5.695 2.524 5.695h1.975l-5.984-13.635Zm-4.813 10.534 3.739-8.586 1.852 4.271-5.591 4.315ZM13.985 13.661l7.59-5.695 2.525 5.695h1.974L20.09.017h-2.017l-6.001 13.644h1.913Zm5.03-11.696 1.853 4.272-5.59 4.315 3.738-8.587Zm69.058 11.696 7.59-5.695 2.525 5.695h1.974L94.178.017h-2.017L86.16 13.661h1.913Zm5.022-11.696 1.852 4.272-5.59 4.315 3.738-8.587Zm41.988 26.659-7.687-9.294h-2.524l10.176 11.958h-9.154v1.695h11.032V19.33h-1.843v9.294Zm-30.598-9.311h-2.498l-6.603 6.393v-6.35h-1.8V33h1.8v-5.023l2.367-2.253L102.44 33h2.193l-5.652-8.455 5.503-5.232Z" fill="#fff" fill-opacity=".7"/></svg>