<svg width="30" height="30" viewBox="0 0 30 30" fill="none" xmlns="http://www.w3.org/2000/svg">
<circle cx="15" cy="15" r="15" fill="#B5B5B5"/>
<path d="M0 14.9998C0 21.1419 3.69352 26.4185 8.97879 28.7384C8.9366 27.691 8.97129 26.4336 9.23988 25.294C9.52828 24.0763 11.17 17.1206 11.17 17.1206C11.17 17.1206 10.6908 16.1629 10.6908 14.7474C10.6908 12.5245 11.9791 10.8644 13.5837 10.8644C14.9481 10.8644 15.6073 11.8892 15.6073 13.1163C15.6073 14.4878 14.7325 16.5394 14.2826 18.4395C13.9068 20.0307 15.0804 21.3285 16.6501 21.3285C19.4921 21.3285 21.4063 17.6783 21.4063 13.3535C21.4063 10.066 19.192 7.60538 15.1646 7.60538C10.6145 7.60538 7.77984 10.9986 7.77984 14.7888C7.77984 16.0956 8.16516 17.0172 8.76867 17.7308C9.04617 18.0586 9.08473 18.1904 8.9843 18.5668C8.91234 18.8428 8.74711 19.5072 8.67867 19.7705C8.57883 20.1504 8.27098 20.2862 7.92762 20.146C5.83184 19.2904 4.85578 16.9954 4.85578 14.4154C4.85578 10.1545 8.44945 5.04525 15.5763 5.04525C21.3033 5.04525 25.0726 9.18936 25.0726 13.6378C25.0726 19.522 21.8012 23.9179 16.9789 23.9179C15.3595 23.9179 13.8362 23.0425 13.3144 22.0482C13.3144 22.0482 12.4436 25.5042 12.2591 26.1716C11.9411 27.3281 11.3186 28.484 10.7494 29.3849C12.0984 29.7831 13.5236 30 15.0006 30C23.2839 30 30.0001 23.2843 30.0001 14.9998C30.0001 6.71572 23.2839 0 15.0006 0C6.71648 0 0 6.71572 0 14.9998Z" fill="#060606"/>
<circle cx="15" cy="15" r="14.5" stroke="#B5B5B5"/>
</svg>
