<svg width="30" height="30" fill="none" xmlns="http://www.w3.org/2000/svg"><circle cx="15" cy="15" r="15" fill="#27A5E4"/><path fill-rule="evenodd" clip-rule="evenodd" d="M7.565 14.596c4.16-1.834 6.935-3.044 8.324-3.628C19.852 9.3 20.675 9.01 21.212 9c.118-.002.382.028.553.168a.612.612 0 0 1 .203.391c.019.113.042.369.024.569-.215 2.284-1.145 7.826-1.617 10.385-.2 1.082-.594 1.445-.976 1.48-.829.078-1.458-.554-2.26-1.086-1.257-.834-1.967-1.352-3.186-2.166-1.41-.94-.496-1.456.307-2.3.21-.221 3.863-3.583 3.933-3.888.009-.038.017-.18-.066-.255-.084-.075-.207-.05-.296-.029-.126.029-2.133 1.371-6.02 4.027-.57.396-1.085.589-1.548.579-.51-.012-1.49-.292-2.218-.532-.894-.294-1.605-.45-1.543-.949.032-.26.386-.526 1.062-.798Z" fill="#F8F8F8"/></svg>