<svg width="30" height="30" fill="none" xmlns="http://www.w3.org/2000/svg"><circle cx="15" cy="15" r="15" fill="#54CC61"/><path d="M23.744 15a8.743 8.743 0 0 1-13.703 7.2l-2.988.748.783-2.937A8.743 8.743 0 1 1 23.744 15Z" fill="url(#a)"/><path fill-rule="evenodd" clip-rule="evenodd" d="M15 25.2c5.634 0 10.2-4.567 10.2-10.2 0-5.633-4.566-10.2-10.2-10.2C9.367 4.8 4.8 9.367 4.8 15c0 1.83.482 3.546 1.325 5.03L4.8 25.2l5.33-1.236A10.154 10.154 0 0 0 15 25.2Zm0-1.57a8.63 8.63 0 1 0-7.073-3.683l-.773 2.9 2.95-.738A8.592 8.592 0 0 0 15 23.63Z" fill="#fff"/><path d="M12.45 10.264c-.242-.487-.614-.444-.99-.444-.671 0-1.719.805-1.719 2.302 0 1.227.541 2.57 2.363 4.58 1.759 1.94 4.07 2.942 5.987 2.908 1.918-.034 2.313-1.684 2.313-2.242 0-.247-.153-.37-.259-.404-.653-.313-1.859-.898-2.133-1.008-.275-.11-.418.039-.507.12-.249.237-.742.935-.91 1.093-.17.157-.421.077-.526.018-.385-.155-1.43-.62-2.264-1.427-1.03-1-1.09-1.343-1.284-1.649-.156-.244-.042-.395.015-.46.222-.256.529-.652.666-.848.137-.197.028-.495-.037-.68-.282-.8-.52-1.47-.714-1.859Z" fill="#fff"/><defs><linearGradient id="a" x1="22.651" y1="8.443" x2="6.258" y2="23.743" gradientUnits="userSpaceOnUse"><stop stop-color="#5BD066"/><stop offset="1" stop-color="#27B43E"/></linearGradient></defs></svg>