<svg width="30" height="30" fill="none" xmlns="http://www.w3.org/2000/svg"><path fill-rule="evenodd" clip-rule="evenodd" d="M15 25.2c5.634 0 10.2-4.567 10.2-10.2 0-5.633-4.566-10.2-10.2-10.2C9.367 4.8 4.8 9.367 4.8 15c0 1.83.482 3.546 1.325 5.03L4.8 25.2l5.33-1.236A10.154 10.154 0 0 0 15 25.2Zm0-1.57a8.63 8.63 0 1 0-7.073-3.683l-.773 2.9 2.95-.738A8.591 8.591 0 0 0 15 23.63Z" fill="#B5B5B5"/><path d="M12.45 10.264c-.242-.487-.614-.443-.99-.443-.671 0-1.719.804-1.719 2.301 0 1.228.541 2.57 2.363 4.58 1.759 1.94 4.07 2.943 5.987 2.909 1.918-.035 2.313-1.685 2.313-2.243 0-.247-.153-.37-.259-.403-.653-.314-1.859-.899-2.133-1.008-.275-.11-.418.038-.507.119-.249.237-.742.936-.91 1.093-.17.157-.421.078-.526.018-.385-.155-1.43-.62-2.264-1.427-1.03-.999-1.09-1.342-1.284-1.648-.156-.245-.042-.395.015-.46.222-.257.529-.652.666-.849.137-.196.028-.495-.037-.68-.282-.8-.52-1.469-.714-1.858Z" fill="#fff" fill-opacity=".7"/><circle cx="15" cy="15" r="14.5" stroke="#B5B5B5"/></svg>